<svg class="animated" id="freepik_stories-fortune-cookie" xmlns="http://www.w3.org/2000/svg" viewBox="0 0 500 500" version="1.1" xmlns:xlink="http://www.w3.org/1999/xlink" xmlns:svgjs="http://svgjs.com/svgjs"><style>svg#freepik_stories-fortune-cookie:not(.animated) .animable {opacity: 0;}svg#freepik_stories-fortune-cookie.animated #freepik--background-simple--inject-53 {animation: 6s Infinite  linear wind;animation-delay: 0s;}svg#freepik_stories-fortune-cookie.animated #freepik--Stars--inject-53 {animation: 3s Infinite  linear heartbeat;animation-delay: 0s;}svg#freepik_stories-fortune-cookie.animated #freepik--Text--inject-53 {animation: 1s 1 forwards cubic-bezier(.36,-0.01,.5,1.38) slideDown,1.5s Infinite  linear wind;animation-delay: 0s,1s;}svg#freepik_stories-fortune-cookie.animated #freepik--fortune-cookie--inject-53 {animation: 1s 1 forwards cubic-bezier(.36,-0.01,.5,1.38) fadeIn,6s Infinite  linear floating;animation-delay: 0s,1s;}svg#freepik_stories-fortune-cookie.animated #freepik--Face--inject-53 {animation: 1.5s Infinite  linear floating;animation-delay: 0s;}            @keyframes wind {                0% {                    transform: rotate( 0deg );                }                25% {                    transform: rotate( 1deg );                }                75% {                    transform: rotate( -1deg );                }            }                    @keyframes heartbeat {                0% {                    transform: scale(1);                }                10% {                    transform: scale(1.1);                }                30% {                    transform: scale(1);                }                40% {                    transform: scale(1);                }                50% {                    transform: scale(1.1);                }                60% {                    transform: scale(1);                }                100% {                    transform: scale(1);                }            }                    @keyframes slideDown {                0% {                    opacity: 0;                    transform: translateY(-30px);                }                100% {                    opacity: 1;                    transform: translateY(0);                }            }                    @keyframes fadeIn {                0% {                    opacity: 0;                }                100% {                    opacity: 1;                }            }                    @keyframes floating {                0% {                    opacity: 1;                    transform: translateY(0px);                }                50% {                    transform: translateY(-10px);                }                100% {                    opacity: 1;                    transform: translateY(0px);                }            }        </style><g id="freepik--background-simple--inject-53" class="animable animator-active" style="transform-origin: 245.257px 243.246px;"><path d="M437.4,314.93s51.09-57.42,34.85-157.33-99.67-136.72-155-117.49-67.81,52.7-113,71.84-131.06,6-174,70.29,11.88,170.82,81.67,237.62S359.8,444.84,437.4,314.93Z" style="fill: #FF81AE; transform-origin: 245.257px 243.246px;" id="elj96cj3v333q" class="animable"></path><g id="elcfxdo3bww2a"><path d="M437.4,314.93s51.09-57.42,34.85-157.33-99.67-136.72-155-117.49-67.81,52.7-113,71.84-131.06,6-174,70.29,11.88,170.82,81.67,237.62S359.8,444.84,437.4,314.93Z" style="fill: rgb(255, 255, 255); opacity: 0.7; transform-origin: 245.257px 243.246px;" class="animable" id="eluafpf9kb1up"></path></g></g><g id="freepik--Stars--inject-53" class="animable" style="transform-origin: 272.746px 251.526px;"><path d="M107.18,199.14a.49.49,0,0,1-.4-.21l-4.36-6-7,2.31a.51.51,0,0,1-.56-.18.49.49,0,0,1,0-.59l4.32-6-4.36-6a.5.5,0,0,1,.56-.77l7,2.26,4.32-6a.51.51,0,0,1,.56-.19.53.53,0,0,1,.35.48l0,7.38,7,2.26a.5.5,0,0,1,.35.48.5.5,0,0,1-.34.47l-7,2.31,0,7.39a.47.47,0,0,1-.34.47A.41.41,0,0,1,107.18,199.14Zm-4.57-7.26a.5.5,0,0,1,.4.21l3.67,5,0-6.21a.51.51,0,0,1,.34-.48l5.9-1.94-5.91-1.9a.48.48,0,0,1-.35-.47l0-6.21-3.63,5a.5.5,0,0,1-.56.18l-5.92-1.9,3.67,5a.49.49,0,0,1,0,.59l-3.63,5,5.9-1.94A.45.45,0,0,1,102.61,191.88Z" style="fill: rgb(38, 50, 56); transform-origin: 104.842px 188.444px;" id="eloy1kdedeq5i" class="animable"></path><path d="M260.26,117.51a.5.5,0,0,1-.29-.09l-4.91-3.57-4.9,3.57a.53.53,0,0,1-.59,0,.49.49,0,0,1-.18-.56l1.87-5.77-4.91-3.57a.5.5,0,0,1,.3-.9h6.06l1.88-5.77a.52.52,0,0,1,.95,0l1.87,5.77h6.06a.5.5,0,0,1,.48.35.49.49,0,0,1-.18.55l-4.91,3.57,1.88,5.77a.51.51,0,0,1-.19.56A.5.5,0,0,1,260.26,117.51Zm-5.2-4.78a.49.49,0,0,1,.3.1l3.95,2.87-1.51-4.65a.51.51,0,0,1,.18-.56l4-2.87h-4.89a.5.5,0,0,1-.48-.35l-1.51-4.65-1.51,4.65a.5.5,0,0,1-.48.35h-4.88l3.95,2.87a.49.49,0,0,1,.18.56l-1.51,4.65,4-2.87A.46.46,0,0,1,255.06,112.73Z" style="fill: rgb(38, 50, 56); transform-origin: 255.062px 109.026px;" id="elwp0gh2a3f9" class="animable"></path><path d="M155.75,98.28a.52.52,0,0,1-.29-.09l-5.12-3.72-5.11,3.72a.5.5,0,0,1-.77-.56l2-6L141.3,87.9a.5.5,0,0,1-.18-.56.51.51,0,0,1,.48-.34h6.32l2-6a.5.5,0,0,1,.47-.35h0a.5.5,0,0,1,.48.35l2,6h6.32a.51.51,0,0,1,.48.34.5.5,0,0,1-.18.56l-5.12,3.72,2,6a.52.52,0,0,1-.18.56A.55.55,0,0,1,155.75,98.28ZM143.14,88l4.16,3a.51.51,0,0,1,.18.56l-1.59,4.89,4.16-3a.5.5,0,0,1,.59,0l4.16,3-1.59-4.89a.51.51,0,0,1,.18-.56l4.16-3h-5.14a.5.5,0,0,1-.48-.35l-1.59-4.89-1.58,4.89a.5.5,0,0,1-.48.35Z" style="fill: rgb(38, 50, 56); transform-origin: 150.395px 89.4704px;" id="elpb80ccwujgs" class="animable"></path><path d="M343.38,395.8a.48.48,0,0,1-.46-.32l-2.35-5.9-6.34.42a.5.5,0,0,1-.5-.32.51.51,0,0,1,.14-.57l4.89-4.06-2.35-5.9a.5.5,0,0,1,.73-.61l5.37,3.39,4.89-4.05a.48.48,0,0,1,.58,0,.47.47,0,0,1,.22.54l-1.57,6.16,5.38,3.39a.5.5,0,0,1,.21.55.48.48,0,0,1-.45.37l-6.34.42-1.56,6.15a.51.51,0,0,1-.46.38Zm-2.48-7.24a.49.49,0,0,1,.46.32l1.92,4.8,1.27-5a.52.52,0,0,1,.46-.38l5.16-.33-4.38-2.77a.48.48,0,0,1-.21-.54l1.27-5-4,3.31a.51.51,0,0,1-.59,0l-4.37-2.76,1.91,4.81a.51.51,0,0,1-.14.57l-4,3.31,5.16-.34Z" style="fill: rgb(38, 50, 56); transform-origin: 342.966px 386.811px;" id="elw3eu8y96k2s" class="animable"></path><path d="M444.87,140.66a.5.5,0,0,1-.37-.17l-3.63-3.92L436,138.81a.49.49,0,0,1-.57-.11.5.5,0,0,1-.07-.59l2.61-4.66-3.63-3.93a.48.48,0,0,1-.07-.58.5.5,0,0,1,.53-.25l5.25,1,2.61-4.66a.49.49,0,0,1,.53-.25.51.51,0,0,1,.4.43l.63,5.31,5.24,1a.49.49,0,0,1,.4.43.5.5,0,0,1-.28.52l-4.86,2.24.63,5.31a.5.5,0,0,1-.28.51A.54.54,0,0,1,444.87,140.66Zm-3.88-5.2a.54.54,0,0,1,.37.16l2.83,3.07-.49-4.15A.5.5,0,0,1,444,134l3.79-1.75-4.09-.81a.51.51,0,0,1-.4-.43l-.49-4.14-2,3.64a.48.48,0,0,1-.53.24l-4.09-.81L439,133a.51.51,0,0,1,.07.59l-2,3.64,3.79-1.75A.54.54,0,0,1,441,135.46Z" style="fill: rgb(38, 50, 56); transform-origin: 442.034px 132.715px;" id="elz7dkp2xas5" class="animable"></path><path d="M167.84,437.76a.46.46,0,0,1-.29-.1l-7.45-5.41-7.45,5.41a.48.48,0,0,1-.58,0,.49.49,0,0,1-.19-.55l2.85-8.76-7.45-5.41a.5.5,0,0,1-.18-.56.5.5,0,0,1,.48-.34h9.2l2.85-8.76a.52.52,0,0,1,1,0l2.84,8.76h9.21a.5.5,0,0,1,.29.9l-7.45,5.41,2.85,8.76a.5.5,0,0,1-.18.55A.49.49,0,0,1,167.84,437.76ZM149.11,423l6.5,4.71a.49.49,0,0,1,.18.56L153.31,436l6.5-4.72a.48.48,0,0,1,.58,0l6.5,4.72-2.48-7.64a.51.51,0,0,1,.18-.56l6.5-4.71h-8a.5.5,0,0,1-.48-.35l-2.48-7.64-2.48,7.64a.5.5,0,0,1-.48.35Z" style="fill: rgb(38, 50, 56); transform-origin: 160.123px 425.333px;" id="elu9yre2hpx5a" class="animable"></path><path d="M429.44,326.38a.46.46,0,0,1-.29-.1.48.48,0,0,1-.18-.56l2.92-9-7.66-5.57a.5.5,0,0,1-.18-.56.51.51,0,0,1,.48-.34H434l2.92-9a.52.52,0,0,1,.95,0l2.93,9h9.47a.5.5,0,0,1,.47.34.48.48,0,0,1-.18.56l-7.66,5.57,2.93,9a.51.51,0,0,1-.18.56.49.49,0,0,1-.59,0l-7.66-5.56-7.66,5.56A.47.47,0,0,1,429.44,326.38Zm-3.38-15.13,6.71,4.87a.51.51,0,0,1,.19.56l-2.57,7.89,6.71-4.87a.5.5,0,0,1,.59,0l6.71,4.87-2.56-7.89a.49.49,0,0,1,.18-.56l6.71-4.87h-8.3a.5.5,0,0,1-.47-.35L437.4,303l-2.57,7.88a.48.48,0,0,1-.47.35Z" style="fill: rgb(38, 50, 56); transform-origin: 437.397px 313.661px;" id="elsrzy4hrut5f" class="animable"></path><path d="M331.64,92.15h-.05a.5.5,0,0,1-.44-.39l-2-9.54-9.69-1a.5.5,0,0,1-.44-.39.53.53,0,0,1,.24-.54l8.46-4.86-2-9.54a.48.48,0,0,1,.24-.53.48.48,0,0,1,.58.06l7.23,6.54,8.46-4.86a.48.48,0,0,1,.58.06.49.49,0,0,1,.12.57l-4,8.9,7.23,6.54a.51.51,0,0,1,.12.58.5.5,0,0,1-.5.29l-9.7-1-4,8.9A.51.51,0,0,1,331.64,92.15ZM321.09,80.34l8.52.91a.52.52,0,0,1,.44.4L331.81,90l3.51-7.83a.5.5,0,0,1,.51-.29l8.52.91L338,77.08a.49.49,0,0,1-.12-.57l3.5-7.83L333.94,73a.5.5,0,0,1-.59-.06L327,67.14l1.77,8.39a.51.51,0,0,1-.24.54Z" style="fill: rgb(38, 50, 56); transform-origin: 332.668px 78.72px;" id="elug50t6ynxi" class="animable"></path></g><g id="freepik--Circles--inject-53" class="animable" style="transform-origin: 255.065px 264.305px;"><path d="M193.6,176.7a4.73,4.73,0,1,1,4.72-4.73A4.73,4.73,0,0,1,193.6,176.7Zm0-8.46a3.73,3.73,0,1,0,3.72,3.73A3.73,3.73,0,0,0,193.6,168.24Z" style="fill: rgb(38, 50, 56); transform-origin: 193.59px 171.97px;" id="el259lyq8c9su" class="animable"></path><path d="M203,89.54a3.1,3.1,0,1,1,3.1-3.1A3.1,3.1,0,0,1,203,89.54Zm0-5.2a2.1,2.1,0,1,0,2.1,2.1A2.1,2.1,0,0,0,203,84.34Z" style="fill: rgb(38, 50, 56); transform-origin: 203px 86.44px;" id="ele7dnu5jdn9w" class="animable"></path><path d="M105.79,145.48a2.78,2.78,0,1,1,2.78-2.78A2.79,2.79,0,0,1,105.79,145.48Zm0-4.56a1.78,1.78,0,1,0,1.78,1.78A1.78,1.78,0,0,0,105.79,140.92Z" style="fill: rgb(38, 50, 56); transform-origin: 105.79px 142.7px;" id="elm97a4pfe3un" class="animable"></path><path d="M54.73,232a3.1,3.1,0,1,1,3.11-3.1A3.1,3.1,0,0,1,54.73,232Zm0-5.2a2.1,2.1,0,1,0,2.11,2.1A2.11,2.11,0,0,0,54.73,226.78Z" style="fill: rgb(38, 50, 56); transform-origin: 54.74px 228.9px;" id="elpzw42mbs3sn" class="animable"></path><path d="M225.47,422.55a6,6,0,1,1,6-6A6,6,0,0,1,225.47,422.55Zm0-11.05a5,5,0,1,0,5,5A5,5,0,0,0,225.47,411.5Z" style="fill: rgb(38, 50, 56); transform-origin: 225.47px 416.55px;" id="eld9y2blf672o" class="animable"></path><path d="M452.14,207.92a3.11,3.11,0,1,1,3.1-3.11A3.12,3.12,0,0,1,452.14,207.92Zm0-5.21a2.11,2.11,0,1,0,2.1,2.1A2.11,2.11,0,0,0,452.14,202.71Z" style="fill: rgb(38, 50, 56); transform-origin: 452.13px 204.81px;" id="eladi3hvjrk5p" class="animable"></path><path d="M397.18,83a4.73,4.73,0,1,1,4.72-4.73A4.73,4.73,0,0,1,397.18,83Zm0-8.46a3.73,3.73,0,1,0,3.72,3.73A3.73,3.73,0,0,0,397.18,74.58Z" style="fill: rgb(38, 50, 56); transform-origin: 397.17px 78.27px;" id="elsyc96t4ehud" class="animable"></path><path d="M404.33,151.33a3.43,3.43,0,1,1,3.43-3.43A3.44,3.44,0,0,1,404.33,151.33Zm0-5.85a2.43,2.43,0,1,0,2.43,2.42A2.42,2.42,0,0,0,404.33,145.48Z" style="fill: rgb(38, 50, 56); transform-origin: 404.33px 147.9px;" id="eldeocww09yku" class="animable"></path><path d="M48.55,382.88A3.43,3.43,0,1,1,52,379.45,3.43,3.43,0,0,1,48.55,382.88Zm0-5.86A2.43,2.43,0,1,0,51,379.45,2.43,2.43,0,0,0,48.55,377Z" style="fill: rgb(38, 50, 56); transform-origin: 48.57px 379.45px;" id="elzrjrj5j7ucl" class="animable"></path><path d="M427.1,384.83a4.08,4.08,0,1,1,4.07-4.08A4.08,4.08,0,0,1,427.1,384.83Zm0-7.16a3.08,3.08,0,1,0,3.07,3.08A3.08,3.08,0,0,0,427.1,377.67Z" style="fill: rgb(38, 50, 56); transform-origin: 427.09px 380.75px;" id="elgug286omlqb" class="animable"></path><path d="M163.35,351.66a4.08,4.08,0,1,1,4.08-4.08A4.08,4.08,0,0,1,163.35,351.66Zm0-7.16a3.08,3.08,0,1,0,3.08,3.08A3.08,3.08,0,0,0,163.35,344.5Z" style="fill: rgb(38, 50, 56); transform-origin: 163.35px 347.58px;" id="el52hoos08uv9" class="animable"></path><path d="M462.87,304.18a2.13,2.13,0,1,1,2.12-2.13A2.14,2.14,0,0,1,462.87,304.18Zm0-3.26a1.13,1.13,0,1,0,1.12,1.13A1.14,1.14,0,0,0,462.87,300.92Z" style="fill: rgb(38, 50, 56); transform-origin: 462.86px 302.05px;" id="el7fpilj6p4yy" class="animable"></path><path d="M271.65,455.07a2.78,2.78,0,1,1,2.77-2.77A2.78,2.78,0,0,1,271.65,455.07Zm0-4.55a1.78,1.78,0,1,0,1.77,1.78A1.78,1.78,0,0,0,271.65,450.52Z" style="fill: rgb(38, 50, 56); transform-origin: 271.64px 452.29px;" id="el4vlpx91r0kn" class="animable"></path></g><g id="freepik--paper-strip--inject-53" class="animable" style="transform-origin: 139.944px 304.074px;"><path d="M58.72,317.22,52,319.28l18.55,42.26s70.08-27.31,97.39-42.26,49-20.41,49-20.41c-6.31-10.32-12.54-24.8-15.21-34.85Z" style="fill: rgb(38, 50, 56); transform-origin: 134.47px 312.78px;" id="el3vyjzsh6ipf" class="animable"></path><path d="M70.57,362a.5.5,0,0,1-.45-.3L51.57,319.48a.47.47,0,0,1,0-.4.49.49,0,0,1,.31-.27l6.68-2.06,143-53.2a.53.53,0,0,1,.41,0,.52.52,0,0,1,.25.31c2.75,10.36,9,24.63,15.15,34.72a.46.46,0,0,1,0,.44.51.51,0,0,1-.34.3c-.22.06-22,5.63-48.89,20.37s-96.74,42-97.44,42.28A.43.43,0,0,1,70.57,362ZM52.71,319.6l18.13,41.3c6-2.37,71-27.92,96.88-42.06,24.45-13.37,44.64-19.24,48.47-20.28a150.81,150.81,0,0,1-14.77-33.88l-142.52,53h0Zm6-2.38h0Z" style="fill: rgb(38, 50, 56); transform-origin: 134.476px 312.754px;" id="elgahhca36xcm" class="animable"></path><path d="M214.34,246.63s-20.61,10.82-36.59,18.55-53.59,18-68.53,26.79S52.54,311,52.54,311l18,46.37s66-24.73,87.6-33.49,68-35.55,69.57-36.59S214.34,246.63,214.34,246.63Z" style="fill: rgb(255, 255, 255); transform-origin: 140.183px 302px;" id="elv3dzl0jsdy" class="animable"></path><path d="M70.57,357.92a.5.5,0,0,1-.46-.32l-18-46.38a.53.53,0,0,1,0-.41.54.54,0,0,1,.33-.26c.42-.1,41.84-10.39,56.55-19,8.43-4.94,23.9-10.32,38.86-15.53,11.69-4.07,22.73-7.91,29.71-11.28,15.78-7.64,36.36-18.44,36.57-18.55a.53.53,0,0,1,.41,0,.52.52,0,0,1,.29.29c0,.1,3.78,10,7.28,20,7.22,20.46,6.47,21,5.93,21.32-1.4.93-48.07,27.9-69.66,36.63-21.4,8.67-87,33.26-87.61,33.5A.39.39,0,0,1,70.57,357.92ZM53.21,311.39l17.65,45.38c5.93-2.22,66.69-25,87.13-33.31,21.17-8.57,66.54-34.72,69.36-36.47.31-2.34-7.85-25.22-13.28-39.66-3.25,1.71-21.67,11.32-36.1,18.3-7,3.4-18.09,7.25-29.81,11.33-14.92,5.18-30.34,10.55-38.69,15.44C95.57,300.55,58.21,310.13,53.21,311.39Z" style="fill: rgb(38, 50, 56); transform-origin: 140.216px 302.044px;" id="elhh2qi3jknto" class="animable"></path></g><g id="freepik--Text--inject-53" class="animable" style="transform-origin: 133.927px 306.669px;"><path d="M91.81,333.53a4.8,4.8,0,0,1-3,.32,4.24,4.24,0,0,1-2.23-1.49,10.72,10.72,0,0,1-1.65-3l-2.25-5.77a11.19,11.19,0,0,1-.81-3.35,4,4,0,0,1,.7-2.63,5.69,5.69,0,0,1,2.68-1.86,6,6,0,0,1,3-.5,3.62,3.62,0,0,1,2.16,1.13A7.43,7.43,0,0,1,92,318.94l.35.9-3,1.16L89,320a8.1,8.1,0,0,0-.67-1.38,1.68,1.68,0,0,0-.82-.72,1.82,1.82,0,0,0-1.26.13,1.7,1.7,0,0,0-1,.87,2.07,2.07,0,0,0,0,1.24,11.26,11.26,0,0,0,.46,1.48l2.8,7.2a8.25,8.25,0,0,0,.75,1.49,2,2,0,0,0,.95.79,1.81,1.81,0,0,0,1.28-.09,1.76,1.76,0,0,0,1-.84,2.21,2.21,0,0,0,.15-1.28,7.79,7.79,0,0,0-.47-1.67l-.63-1.62-1.84.72-.77-2,4.67-1.82,3.39,8.73-2,.78-.9-1.61a3.44,3.44,0,0,1-.49,1.79A3.19,3.19,0,0,1,91.81,333.53Z" style="fill: #FF81AE; transform-origin: 89.4224px 324.592px;" id="eluyd4sobkhc" class="animable"></path><path d="M104,328.77a5.86,5.86,0,0,1-3.17.45,4,4,0,0,1-2.31-1.35A9.42,9.42,0,0,1,96.91,325l-2.5-6.43a9.17,9.17,0,0,1-.7-3.16,4,4,0,0,1,.81-2.51,6.09,6.09,0,0,1,2.66-1.79,6,6,0,0,1,3.19-.48,4,4,0,0,1,2.29,1.29,9,9,0,0,1,1.64,2.8l2.51,6.45a9.19,9.19,0,0,1,.68,3.17,4.11,4.11,0,0,1-.79,2.55A5.76,5.76,0,0,1,104,328.77Zm-.9-2.32a1.72,1.72,0,0,0,1-.79,1.8,1.8,0,0,0,.14-1.12,6.27,6.27,0,0,0-.38-1.35l-3.08-7.91a5.83,5.83,0,0,0-.63-1.25,1.75,1.75,0,0,0-.85-.71,1.86,1.86,0,0,0-1.28.12,1.83,1.83,0,0,0-1,.77,1.75,1.75,0,0,0-.16,1.1,6.79,6.79,0,0,0,.38,1.35l3.08,7.91a6.93,6.93,0,0,0,.62,1.25,1.74,1.74,0,0,0,.86.74A1.79,1.79,0,0,0,103.13,326.45Z" style="fill: #FF81AE; transform-origin: 100.6px 319.929px;" id="elhhc9p3n15z9" class="animable"></path><path d="M116,324.12a5.88,5.88,0,0,1-3.17.45,4,4,0,0,1-2.31-1.35,9.42,9.42,0,0,1-1.64-2.83l-2.5-6.43a8.94,8.94,0,0,1-.7-3.17,4,4,0,0,1,.81-2.5,7.29,7.29,0,0,1,5.85-2.27,4,4,0,0,1,2.29,1.29,9.2,9.2,0,0,1,1.64,2.8l2.51,6.45a9.19,9.19,0,0,1,.68,3.17,4.11,4.11,0,0,1-.79,2.55A5.87,5.87,0,0,1,116,324.12Zm-.9-2.32a1.75,1.75,0,0,0,1-.79,1.8,1.8,0,0,0,.14-1.12,6.91,6.91,0,0,0-.38-1.35l-3.08-7.91a6.93,6.93,0,0,0-.63-1.25,1.8,1.8,0,0,0-.85-.71,1.86,1.86,0,0,0-1.28.12,1.83,1.83,0,0,0-1,.77,1.75,1.75,0,0,0-.16,1.1,6,6,0,0,0,.38,1.35l3.08,7.91a6.93,6.93,0,0,0,.62,1.25,1.74,1.74,0,0,0,.86.74A1.79,1.79,0,0,0,115.08,321.8Z" style="fill: #FF81AE; transform-origin: 112.57px 315.311px;" id="elh3edx0q6fyj" class="animable"></path><path d="M123.17,321.05l-6.69-17.19,4-1.58a8.21,8.21,0,0,1,3.5-.7,3.64,3.64,0,0,1,2.37,1.11,8.47,8.47,0,0,1,1.67,2.82l2.44,6.28a8.93,8.93,0,0,1,.71,3.3,3.73,3.73,0,0,1-.93,2.49,7.4,7.4,0,0,1-2.94,1.84Zm2.29-3.41,1-.37a2.66,2.66,0,0,0,1.4-1A1.83,1.83,0,0,0,128,315a13.1,13.1,0,0,0-.59-1.84l-2.56-6.57a8.1,8.1,0,0,0-.8-1.62,1.56,1.56,0,0,0-1-.7,3.18,3.18,0,0,0-1.62.29l-.91.36Z" style="fill: #FF81AE; transform-origin: 123.825px 311.314px;" id="elcackuxqnmcw" class="animable"></path><path d="M140.14,314.44l-6.68-17.19L136.6,296l5.84,15,4.16-1.62.85,2.16Z" style="fill: #FF81AE; transform-origin: 140.455px 305.22px;" id="el6eiwkful6c" class="animable"></path><path d="M153.71,309.43a5.72,5.72,0,0,1-3.24.46,3.82,3.82,0,0,1-2.24-1.43,10.9,10.9,0,0,1-1.61-2.94l-4.53-11.63,3.06-1.19,4.67,12a12,12,0,0,0,.69,1.48,2.28,2.28,0,0,0,1,.95,2,2,0,0,0,2.37-.92,2.5,2.5,0,0,0,0-1.34,10.6,10.6,0,0,0-.48-1.56l-4.66-12,3-1.18,4.53,11.62a11.34,11.34,0,0,1,.8,3.26,3.83,3.83,0,0,1-.68,2.56A5.73,5.73,0,0,1,153.71,309.43Z" style="fill: #FF81AE; transform-origin: 149.588px 300.042px;" id="elrjnkh2s8vb" class="animable"></path><path d="M165.64,304.79a5.49,5.49,0,0,1-3.25.41,4.21,4.21,0,0,1-2.29-1.44,10.2,10.2,0,0,1-1.57-2.8l-2.39-6.13a10.42,10.42,0,0,1-.76-3.22,3.84,3.84,0,0,1,.72-2.58,5.73,5.73,0,0,1,2.68-1.85,5.8,5.8,0,0,1,3-.49,3.65,3.65,0,0,1,2.11,1.18,8.08,8.08,0,0,1,1.44,2.44l.56,1.44-3,1.18-.57-1.49a12,12,0,0,0-.59-1.28,1.73,1.73,0,0,0-.77-.79,1.61,1.61,0,0,0-1.27.09,1.78,1.78,0,0,0-1,.83,1.93,1.93,0,0,0-.09,1.18,9.11,9.11,0,0,0,.45,1.45l2.9,7.48a8.06,8.06,0,0,0,.75,1.48,1.74,1.74,0,0,0,.9.7,1.81,1.81,0,0,0,1.19-.11,1.51,1.51,0,0,0,1-.81,2,2,0,0,0,0-1.14,10,10,0,0,0-.45-1.42l-.6-1.55,3-1.17.54,1.38a9.21,9.21,0,0,1,.65,2.86,3.83,3.83,0,0,1-.7,2.4A5.41,5.41,0,0,1,165.64,304.79Z" style="fill: #FF81AE; transform-origin: 162.15px 295.973px;" id="elvj6n54v6mu" class="animable"></path><path d="M172.38,301.9l-6.69-17.19,3.14-1.23,2.94,7.56.46-8.88,3-1.16-.3,9,7.33,8.1-3.12,1.21-5.93-6.71-.21,1.6,2.53,6.52Z" style="fill: #FF81AE; transform-origin: 173.975px 291.45px;" id="el17lrz068hzy" class="animable"></path><path d="M182.53,293.31l-6-12.8,2.88-1.13,4.1,13.54Zm.68,4.37-1.09-2.8,2.8-1.09L186,296.6Z" style="fill: #FF81AE; transform-origin: 181.265px 288.53px;" id="elwojuss08k4" class="animable"></path></g><g id="freepik--fortune-cookie--inject-53" class="animable" style="transform-origin: 295.172px 236.55px;"><path d="M373.11,311.29c4.18-36.59-17.49-71.23-52-84-31.23-11.59-67.62-21.77-82-13.09-27.31,16.49-33.49,48.44-33.49,48.44L201.76,264c1.55,5.86,2,9.52,4.33,15.83a76.81,76.81,0,0,0,27.11,35.06c7.42,5.35,16.61,10.6,26.49,13.13,76.25,19.56,55.65-6.18,55.65-6.18l1.54-38.65s5.16-10.3,11.34-5.15,10.79,22.46,14.94,32.46c7.63,18.35,21,14.64,27.24,10.16C371.67,319.77,372.54,316.28,373.11,311.29Z" style="fill: rgb(38, 50, 56); transform-origin: 287.692px 273.152px;" id="elhmhxzjwy4jt" class="animable"></path><path d="M303.11,335.9c-9.84,0-24.39-2.46-43.55-7.37-8.57-2.2-17.54-6.65-26.65-13.22A77,77,0,0,1,205.63,280a74.46,74.46,0,0,1-3.11-10.75c-.37-1.6-.75-3.25-1.25-5.13a.51.51,0,0,1,.31-.6l3.57-1.32c.7-3.19,7.83-32.9,33.67-48.5,14.87-9,53,2.14,82.44,13.05a80.44,80.44,0,0,1,52.34,84.57c-.65,5.68-1.57,8.78-2.91,9.73-1.76,1.27-8.05,5.22-15.17,3.2-5.4-1.54-9.72-6.1-12.82-13.57-1.12-2.69-2.26-5.88-3.47-9.26-3.24-9.06-6.91-19.32-11.33-23a4.74,4.74,0,0,0-4.1-1.23c-3.43.71-6,5.41-6.42,6.13l-1.54,38.36c.71.94,4.15,5.86,1.64,9.75C315.56,334.42,310.75,335.9,303.11,335.9ZM202.35,264.33c.45,1.72.8,3.25,1.14,4.73a74,74,0,0,0,30,45.44c9,6.5,17.87,10.89,26.32,13.06,41.82,10.72,54,7.74,56.82,3.35,2.34-3.62-1.64-8.69-1.68-8.74a.44.44,0,0,1-.11-.33l1.54-38.65a.66.66,0,0,1,.06-.2c.12-.24,3-5.89,7.15-6.76a5.71,5.71,0,0,1,5,1.45c4.63,3.85,8.35,14.26,11.63,23.43,1.21,3.37,2.35,6.55,3.46,9.22,3,7.17,7.07,11.54,12.17,13,6.68,1.9,12.64-1.85,14.31-3.05.73-.52,1.75-2.51,2.5-9h0a79.45,79.45,0,0,0-51.7-83.52c-41.87-15.53-70.08-20.07-81.58-13.13-26.79,16.18-33.2,47.79-33.26,48.11a.49.49,0,0,1-.31.37Z" style="fill: rgb(38, 50, 56); transform-origin: 287.68px 273.153px;" id="elcoylpqxk9cs" class="animable"></path><path d="M404.64,194c-19.5-21-44.31-36.47-70.84-46.95-31.17-12.32-58.15-15.16-83.84,9.25a179.85,179.85,0,0,0-35.42,47c-6.64,12.71-15.17,29-15.26,43.69-.21,30.75,23.54,60,50.36,72.64,14.53,6.86,30.07,9.95,45.77,12.82,8.17,1.49,23,4.84,28.41-4.19,5.24-8.74-7-62.89-1.17-67s19.22,34.36,24.46,47.17,15.72,18.05,23.29,12.23,42.51-43.68,53-77.45C428.83,225.73,417.6,207.9,404.64,194Z" style="fill: rgb(255, 255, 255); transform-origin: 312.039px 236.051px;" id="el6q5szb58whb" class="animable"></path><path d="M416.81,218c3.88,12.73-5.53,47.06-19.38,66.44s-26.9,32.24-36,23.25S326,223,316.05,223s1.66,65.89,0,80.84-14.4,19.93-46.51,5S237.89,224.3,254,189.42s22.79-47.8,22.79-47.8l1.48-1.92c-9.67,2.57-19.05,7.8-28.26,16.55a179.85,179.85,0,0,0-35.42,47c-6.64,12.71-15.17,29-15.26,43.69-.21,30.75,23.54,60,50.36,72.64,14.53,6.86,30.07,9.95,45.77,12.82,8.17,1.49,23,4.84,28.41-4.19,5.24-8.74-7-62.89-1.17-67s19.22,34.36,24.46,47.17,15.72,18.05,23.29,12.23,42.51-43.68,53-77.45c4.67-15-3-30.34-13.45-43.2A170.49,170.49,0,0,1,416.81,218Z" style="fill: #FF81AE; transform-origin: 312.089px 236.978px;" id="els11d2ucnhda" class="animable"></path><path d="M309.93,334.78a73.64,73.64,0,0,1-13.21-1.59l-1.4-.26c-16.64-3-31.58-6.1-45.89-12.86-25.34-12-50.87-40.92-50.65-73.1.1-14.77,8.49-30.84,15.23-43.75l.09-.16a179.32,179.32,0,0,1,35.51-47.17c27.9-26.5,57-20.16,84.37-9.35,28.62,11.3,52.51,27.14,71,47.07,17.07,18.37,23.42,35.11,18.87,49.77-10.91,35.17-46.69,72.71-53.16,77.69a11.36,11.36,0,0,1-10.2,2.05c-5.59-1.51-10.77-6.92-13.86-14.48-.87-2.12-1.95-4.91-3.2-8.14-5.41-14-14.46-37.43-19.46-39a1.14,1.14,0,0,0-1.05.15c-2.68,1.87-.94,17.56.59,31.39,1.68,15.21,3.42,30.92.72,35.42C321.31,333.39,315.74,334.78,309.93,334.78ZM293.79,138.22c-14.56,0-29.2,4.82-43.49,18.39A178.73,178.73,0,0,0,215,203.52l-.08.16c-6.69,12.82-15,28.77-15.12,43.3-.22,31.76,25,60.35,50.07,72.18,14.21,6.71,29.08,9.76,45.65,12.78l1.4.26c8.06,1.51,21.55,4,26.49-4.21,2.53-4.21.81-19.76-.86-34.8-2.07-18.73-3.11-30.25-.16-32.32a2.11,2.11,0,0,1,1.91-.28c5.46,1.66,14.27,24.46,20.11,39.55,1.24,3.22,2.32,6,3.18,8.12,3,7.27,7.91,12.46,13.2,13.89a10.39,10.39,0,0,0,9.33-1.87c7.77-6,42.53-44.06,52.82-77.2,4.43-14.29-1.84-30.7-18.65-48.79-18.41-19.82-42.18-35.57-70.65-46.82C320.64,142.34,307.25,138.22,293.79,138.22Z" style="fill: rgb(38, 50, 56); transform-origin: 312.027px 235.99px;" id="elub1luysgfh" class="animable"></path><path d="M328.87,261.06a.51.51,0,0,1-.48-.35s-.46-1.47-1.18-3.48a.49.49,0,0,1,.3-.64.51.51,0,0,1,.64.3c.73,2,1.19,3.5,1.2,3.52a.51.51,0,0,1-.33.63Z" style="fill: rgb(38, 50, 56); transform-origin: 328.274px 258.811px;" id="elibmnihba70r" class="animable"></path><path d="M311.1,331.86h-.58a.5.5,0,0,1,0-1,2.61,2.61,0,0,1,.56,0,71.79,71.79,0,0,0,7.51-.33.5.5,0,0,1,.56.43.5.5,0,0,1-.44.56A70.7,70.7,0,0,1,311.1,331.86Z" style="fill: rgb(38, 50, 56); transform-origin: 314.587px 331.194px;" id="elk2jpc7v7w6b" class="animable"></path><path d="M303.17,331.57h0A130.91,130.91,0,0,1,255.85,319c-33.73-16.26-42.76-32.31-49.13-47.35a55.13,55.13,0,0,1-3.65-14.43.5.5,0,0,1,.44-.56.49.49,0,0,1,.55.43,53.55,53.55,0,0,0,3.59,14.17c6.55,15.49,15.19,30.72,48.64,46.84a129.73,129.73,0,0,0,46.91,12.52.5.5,0,0,1,0,1Z" style="fill: rgb(38, 50, 56); transform-origin: 253.383px 294.138px;" id="el4y2oqfg2v56" class="animable"></path><path d="M203.05,251.64a.5.5,0,0,1-.5-.47,95.36,95.36,0,0,1,.56-16.2.51.51,0,0,1,.57-.42.5.5,0,0,1,.42.56,93.85,93.85,0,0,0-.55,16,.5.5,0,0,1-.47.52Z" style="fill: rgb(38, 50, 56); transform-origin: 203.266px 243.093px;" id="elrf9tesjh9qd" class="animable"></path><path d="M362.08,320.4a7.31,7.31,0,0,1-2.69-.5.5.5,0,0,1,.37-.93c2.66,1,6,.19,10.5-2.68a.5.5,0,0,1,.53.85C367.35,319.33,364.51,320.4,362.08,320.4Z" style="fill: rgb(38, 50, 56); transform-origin: 365.049px 318.308px;" id="el643zwg7hxyu" class="animable"></path><path d="M356.65,317.88a.52.52,0,0,1-.36-.16c-2.05-2.18-3.59-5.43-5.38-9.19-.54-1.14-1.1-2.32-1.7-3.52-5.31-10.62-14.23-32-14.32-32.22a.5.5,0,0,1,.93-.38c.08.21,9,21.57,14.29,32.16.6,1.2,1.16,2.38,1.7,3.53,1.75,3.68,3.27,6.87,5.21,8.93a.5.5,0,0,1,0,.71A.48.48,0,0,1,356.65,317.88Z" style="fill: rgb(38, 50, 56); transform-origin: 346.011px 294.99px;" id="el6cl3vvd25do" class="animable"></path><path d="M321,268.93a.5.5,0,0,1-.49-.4c-.42-2.17-4.11-21.32-1.59-24.38a1.33,1.33,0,0,1,1.06-.53c.71,0,2.87,0,6.83,9.76a.49.49,0,0,1-.27.65.5.5,0,0,1-.65-.28c-3.35-8.24-5.25-9.13-5.91-9.13a.35.35,0,0,0-.29.17c-1.68,2,.16,15.2,1.8,23.55a.48.48,0,0,1-.39.58Z" style="fill: rgb(38, 50, 56); transform-origin: 322.448px 256.275px;" id="elbemvwm9tilr" class="animable"></path><path d="M360.72,282.77a2,2,0,1,1,2-2A2,2,0,0,1,360.72,282.77Zm0-3a1,1,0,1,0,1,1A1,1,0,0,0,360.72,279.81Z" style="fill: rgb(38, 50, 56); transform-origin: 360.72px 280.77px;" id="el4nvxoer2ldp" class="animable"></path><path d="M384.7,259.06a1.44,1.44,0,1,1,1.44-1.44A1.44,1.44,0,0,1,384.7,259.06Zm0-1.88a.45.45,0,0,0-.45.44.45.45,0,1,0,.45-.44Z" style="fill: rgb(38, 50, 56); transform-origin: 384.7px 257.62px;" id="elqfqusrnsvaj" class="animable"></path><path d="M365.43,256.64a1.85,1.85,0,1,1,1.85-1.85A1.84,1.84,0,0,1,365.43,256.64Zm0-2.69a.85.85,0,0,0,0,1.69.85.85,0,1,0,0-1.69Z" style="fill: rgb(38, 50, 56); transform-origin: 365.43px 254.79px;" id="elrhku7wrd7q8" class="animable"></path><path d="M381.6,294.09a2.66,2.66,0,1,1,2.65-2.66A2.66,2.66,0,0,1,381.6,294.09Zm0-4.31a1.66,1.66,0,1,0,1.65,1.65A1.65,1.65,0,0,0,381.6,289.78Z" style="fill: rgb(38, 50, 56); transform-origin: 381.59px 291.43px;" id="ellq48f5eot3r" class="animable"></path><path d="M386.18,209.76a1.85,1.85,0,1,1,1.84-1.85A1.85,1.85,0,0,1,386.18,209.76Zm0-2.69a.85.85,0,1,0,.84.84A.85.85,0,0,0,386.18,207.07Z" style="fill: rgb(38, 50, 56); transform-origin: 386.17px 207.91px;" id="elrhahzva6k79" class="animable"></path><path d="M411.23,234.82a1.31,1.31,0,1,1,1.31-1.31A1.31,1.31,0,0,1,411.23,234.82Zm0-1.62a.31.31,0,1,0,.31.31A.31.31,0,0,0,411.23,233.2Z" style="fill: rgb(38, 50, 56); transform-origin: 411.23px 233.51px;" id="eliebcp34poos" class="animable"></path><path d="M360.18,228.08a1.71,1.71,0,1,1,1.71-1.71A1.71,1.71,0,0,1,360.18,228.08Zm0-2.42a.71.71,0,1,0,.71.71A.71.71,0,0,0,360.18,225.66Z" style="fill: rgb(38, 50, 56); transform-origin: 360.18px 226.37px;" id="eljcfok0otlum" class="animable"></path><path d="M238,259.33a1.58,1.58,0,1,1,1.58-1.57A1.57,1.57,0,0,1,238,259.33Zm0-2.15a.58.58,0,1,0,.58.58A.58.58,0,0,0,238,257.18Z" style="fill: rgb(38, 50, 56); transform-origin: 238px 257.75px;" id="eltvevxq6585" class="animable"></path><path d="M231.94,277.65a2,2,0,1,1,2-2A2,2,0,0,1,231.94,277.65Zm0-3a1,1,0,1,0,1,1A1,1,0,0,0,231.94,274.69Z" style="fill: rgb(38, 50, 56); transform-origin: 231.94px 275.65px;" id="el1szu9p05yme" class="animable"></path><path d="M259.69,294.63a1.72,1.72,0,1,1,1.71-1.72A1.71,1.71,0,0,1,259.69,294.63Zm0-2.43a.72.72,0,1,0,.71.71A.71.71,0,0,0,259.69,292.2Z" style="fill: rgb(38, 50, 56); transform-origin: 259.68px 292.91px;" id="el06ieorqrid5t" class="animable"></path><path d="M256.72,275.77a1.45,1.45,0,1,1,1.45-1.45A1.45,1.45,0,0,1,256.72,275.77Zm0-1.89a.45.45,0,1,0,.45.44A.44.44,0,0,0,256.72,273.88Z" style="fill: rgb(38, 50, 56); transform-origin: 256.72px 274.32px;" id="el97tu3ph5aca" class="animable"></path><path d="M222.37,236.16a1.31,1.31,0,1,1,1.31-1.3A1.3,1.3,0,0,1,222.37,236.16Zm0-1.61a.3.3,0,0,0-.3.31.29.29,0,0,0,.3.3.3.3,0,0,0,.31-.3A.31.31,0,0,0,222.37,234.55Z" style="fill: rgb(38, 50, 56); transform-origin: 222.37px 234.85px;" id="el9bypw2gfyz" class="animable"></path><path d="M217.26,280.62a1.58,1.58,0,1,1,1.57-1.58A1.58,1.58,0,0,1,217.26,280.62Zm0-2.16a.58.58,0,1,0,.57.58A.58.58,0,0,0,217.26,278.46Z" style="fill: rgb(38, 50, 56); transform-origin: 217.25px 279.04px;" id="el4ugpug6l9u7" class="animable"></path><path d="M246.49,307.83a1.72,1.72,0,1,1,1.71-1.71A1.72,1.72,0,0,1,246.49,307.83Zm0-2.43a.72.72,0,1,0,.71.72A.72.72,0,0,0,246.49,305.4Z" style="fill: rgb(38, 50, 56); transform-origin: 246.48px 306.11px;" id="elvffasa11ug9" class="animable"></path><path d="M303.2,302.71a2.12,2.12,0,1,1,2.11-2.12A2.12,2.12,0,0,1,303.2,302.71Zm0-3.23a1.12,1.12,0,1,0,1.11,1.11A1.12,1.12,0,0,0,303.2,299.48Z" style="fill: rgb(38, 50, 56); transform-origin: 303.19px 300.59px;" id="elby4h22qk1r5" class="animable"></path><path d="M297.68,313.22a1.45,1.45,0,1,1,1.44-1.45A1.45,1.45,0,0,1,297.68,313.22Zm0-1.89a.45.45,0,1,0,.44.44A.45.45,0,0,0,297.68,311.33Z" style="fill: rgb(38, 50, 56); transform-origin: 297.67px 311.77px;" id="elk2177xx3km" class="animable"></path><path d="M178.69,245.67l-2,4.55s3,3.53,5.55,3,4.54-6.05,4.54-6.05Z" style="fill: #FF81AE; transform-origin: 181.735px 249.472px;" id="elv1zpt0qagmq" class="animable"></path><path d="M181.72,253.79c-2.61,0-5.31-3.11-5.43-3.25a.49.49,0,0,1-.08-.53l2-4.54a.5.5,0,0,1,.55-.29l8.08,1.52a.47.47,0,0,1,.34.24.51.51,0,0,1,0,.42c-.21.59-2.19,5.83-4.91,6.37A3.05,3.05,0,0,1,181.72,253.79Zm-4.46-3.67c1,1,3.18,3,4.86,2.63s3.25-3.47,4-5.18l-7.1-1.33Z" style="fill: rgb(38, 50, 56); transform-origin: 181.695px 249.481px;" id="elvd191w4igzm" class="animable"></path><path d="M187.27,233.05s-2.53,2.53-2,4.55,4.54,2,4.54,2Z" style="fill: #FF81AE; transform-origin: 187.504px 236.325px;" id="eltkxisxrw0h" class="animable"></path><path d="M189.79,240.12c-.45,0-4.44-.07-5-2.4s2-4.91,2.15-5a.49.49,0,0,1,.46-.13.47.47,0,0,1,.36.31l2.53,6.56a.51.51,0,0,1-.47.68ZM187.1,234c-.73.9-1.65,2.36-1.37,3.48s2.11,1.48,3.32,1.6Z" style="fill: rgb(38, 50, 56); transform-origin: 187.515px 236.358px;" id="elo8moh22t7g" class="animable"></path><path d="M208.45,321.16s-2.52,2.52-2,4.54,4.55,2,4.55,2Z" style="fill: #FF81AE; transform-origin: 208.69px 324.43px;" id="eljr5nphos0re" class="animable"></path><path d="M211,328.22c-.46,0-4.45-.06-5-2.4s2-4.9,2.15-5a.52.52,0,0,1,.46-.14.51.51,0,0,1,.36.31l2.52,6.56a.49.49,0,0,1-.46.68Zm-2.7-6.11c-.72.89-1.64,2.36-1.36,3.47s2.09,1.49,3.31,1.6Z" style="fill: rgb(38, 50, 56); transform-origin: 208.725px 324.451px;" id="elil3sktqurgh" class="animable"></path><path d="M172.63,260.31s6.58.28,5.91-1.41-5-3.47-5-3.47l-8,1.79Z" style="fill: #FF81AE; transform-origin: 172.064px 257.879px;" id="el58elmsp4hgh" class="animable"></path><path d="M173.81,260.84c-.5,0-.92,0-1.2,0a.58.58,0,0,1-.18,0l-7.07-3.1a.5.5,0,0,1,.09-.94l8-1.79a.52.52,0,0,1,.3,0c.46.19,4.52,1.91,5.24,3.75a1,1,0,0,1-.11,1C178.22,260.67,175.56,260.84,173.81,260.84Zm-1.07-1c2.86.12,5.21-.27,5.35-.68-.43-1.1-3-2.5-4.56-3.18l-6.37,1.42Z" style="fill: rgb(38, 50, 56); transform-origin: 172.072px 257.917px;" id="el5qf7fvs9pe7" class="animable"></path><polygon points="227.65 325.42 225.63 329.96 230.17 332.99 233.2 327.44 227.65 325.42" style="fill: #FF81AE; transform-origin: 229.415px 329.205px;" id="el0qlwi1df26dk" class="animable"></polygon><path d="M230.17,333.49a.57.57,0,0,1-.28-.08l-4.54-3a.5.5,0,0,1-.18-.62l2-4.54a.5.5,0,0,1,.63-.27l5.55,2a.53.53,0,0,1,.3.29.51.51,0,0,1,0,.42l-3,5.55a.54.54,0,0,1-.32.25Zm-3.91-3.71,3.73,2.49,2.49-4.56-4.57-1.66Z" style="fill: rgb(38, 50, 56); transform-origin: 229.411px 329.22px;" id="elu44g39l5v2" class="animable"></path><path d="M215.53,312.3,213,316.84s2.52,2,4,1.51Z" style="fill: #FF81AE; transform-origin: 215px 315.364px;" id="elikbjrs8qwcg" class="animable"></path><path d="M216.51,318.93c-1.63,0-3.57-1.5-3.81-1.7a.5.5,0,0,1-.13-.63l2.53-4.55a.5.5,0,0,1,.5-.25.51.51,0,0,1,.42.38l1.51,6.05a.5.5,0,0,1-.32.6A2.32,2.32,0,0,1,216.51,318.93Zm-2.85-2.23a6.26,6.26,0,0,0,2.77,1.23l-1.07-4.28Z" style="fill: rgb(38, 50, 56); transform-origin: 215.028px 315.363px;" id="el5cnn3ow1w57" class="animable"></path></g><g id="freepik--Face--inject-53" class="animable" style="transform-origin: 300.518px 193.766px;"><circle cx="275.96" cy="200.07" r="9.03" style="fill: rgb(38, 50, 56); transform-origin: 275.96px 200.07px;" id="ely1cxls0fvxb" class="animable"></circle><path d="M274.17,199.38a3.06,3.06,0,1,1-3.05-3.06A3.06,3.06,0,0,1,274.17,199.38Z" style="fill: rgb(255, 255, 255); transform-origin: 271.11px 199.38px;" id="el2ofvq58e2wl" class="animable"></path><path d="M278.89,204.79a1,1,0,1,1-1-1A1,1,0,0,1,278.89,204.79Z" style="fill: rgb(255, 255, 255); transform-origin: 277.89px 204.79px;" id="el5uv46lcbsdw" class="animable"></path><circle cx="319.49" cy="185.69" r="9.03" style="fill: rgb(38, 50, 56); transform-origin: 319.49px 185.69px;" id="el10dufkgqeloi" class="animable"></circle><path d="M317.71,185a3.06,3.06,0,1,1-3.06-3.06A3.06,3.06,0,0,1,317.71,185Z" style="fill: rgb(255, 255, 255); transform-origin: 314.65px 185px;" id="elddjgyy1glfe" class="animable"></path><path d="M322.43,190.41a1,1,0,1,1-1-1A1,1,0,0,1,322.43,190.41Z" style="fill: rgb(255, 255, 255); transform-origin: 321.43px 190.41px;" id="elflj995oux8f" class="animable"></path><path d="M257.78,188.62l-.25,0a1.51,1.51,0,0,1-1.23-1.74,14.23,14.23,0,0,1,8.34-10.78,14,14,0,0,1,10.26-.24,1.5,1.5,0,1,1-1,2.82,11,11,0,0,0-8.06.18,11.23,11.23,0,0,0-6.56,8.53A1.51,1.51,0,0,1,257.78,188.62Z" style="fill: rgb(38, 50, 56); transform-origin: 266.141px 181.811px;" id="elx99e8rj9wt" class="animable"></path><path d="M303,172.42a1.54,1.54,0,0,1-.55-.11,1.49,1.49,0,0,1-.84-1.94A14.19,14.19,0,0,1,312,161.48a14,14,0,0,1,10.1,1.83,1.5,1.5,0,0,1-1.57,2.56,11,11,0,0,0-7.93-1.45,11.23,11.23,0,0,0-8.14,7A1.5,1.5,0,0,1,303,172.42Z" style="fill: rgb(38, 50, 56); transform-origin: 312.159px 166.816px;" id="el8f9que7euoh" class="animable"></path><path d="M300,214.6a13.51,13.51,0,0,1-8.15-2.79.5.5,0,0,1-.1-.7.51.51,0,0,1,.7-.1,12.21,12.21,0,0,0,11.57,1.88,12.41,12.41,0,0,0,8-11.51.51.51,0,0,1,.51-.49.5.5,0,0,1,.49.52,13.41,13.41,0,0,1-8.63,12.42A12.56,12.56,0,0,1,300,214.6Z" style="fill: rgb(38, 50, 56); transform-origin: 302.335px 207.745px;" id="el2hkkvu06vc7" class="animable"></path><path d="M297.77,214.2s3.59,10,10.69,7.32c7.6-2.89,2.43-13.68,2.43-13.68S307.88,214.2,297.77,214.2Z" style="fill: rgb(38, 50, 56); transform-origin: 305.189px 214.908px;" id="eldt0pyqjknn" class="animable"></path><path d="M306.08,222.48a6.43,6.43,0,0,1-2.7-.6c-4-1.85-6-7.28-6.08-7.51l-.24-.67h.71c9.65,0,12.55-5.83,12.67-6.07l.45-.95.45.94c.12.26,3,6.26,1.19,10.67a6.41,6.41,0,0,1-3.89,3.69A7.18,7.18,0,0,1,306.08,222.48Zm-7.57-7.79c.65,1.47,2.44,5,5.29,6.28a5.62,5.62,0,0,0,4.48.08,5.48,5.48,0,0,0,3.32-3.13c1.23-3.07-.09-7.2-.79-9C309.59,210.7,306.11,214.46,298.51,214.69Z" style="fill: rgb(38, 50, 56); transform-origin: 305.093px 214.58px;" id="ellmtdlmchl6" class="animable"></path><ellipse cx="276.56" cy="219.64" rx="12.4" ry="6.68" style="fill: #FF81AE; transform-origin: 276.56px 219.64px;" id="el0yqw6scgwhi" class="animable"></ellipse><g id="eldohz3k4eo8m"><ellipse cx="330.92" cy="200.09" rx="12.4" ry="6.68" style="fill: #FF81AE; transform-origin: 330.92px 200.09px; transform: rotate(-39.06deg);" class="animable" id="eljjxm4svcthh"></ellipse></g><path d="M312.36,217.16a7.94,7.94,0,0,0-1.77-.2,8.14,8.14,0,0,0-7.17,4.37,6,6,0,0,0,5,.19A5.94,5.94,0,0,0,312.36,217.16Z" style="fill: #FF81AE; transform-origin: 307.89px 219.468px;" id="elvl4ggzabx6" class="animable"></path><path d="M306.09,222.48a6.52,6.52,0,0,1-2.9-.7.51.51,0,0,1-.25-.29.48.48,0,0,1,0-.39,8.57,8.57,0,0,1,9.49-4.42.52.52,0,0,1,.32.22.5.5,0,0,1,.06.38,6.43,6.43,0,0,1-4.21,4.7A7.17,7.17,0,0,1,306.09,222.48Zm-2-1.38a5.62,5.62,0,0,0,4.15,0,5.46,5.46,0,0,0,3.45-3.5A7.55,7.55,0,0,0,304.13,221.1Z" style="fill: rgb(38, 50, 56); transform-origin: 307.861px 219.476px;" id="elmintzsj7pg" class="animable"></path></g><defs>     <filter id="active" height="200%">         <feMorphology in="SourceAlpha" result="DILATED" operator="dilate" radius="2"></feMorphology>                <feFlood flood-color="#32DFEC" flood-opacity="1" result="PINK"></feFlood>        <feComposite in="PINK" in2="DILATED" operator="in" result="OUTLINE"></feComposite>        <feMerge>            <feMergeNode in="OUTLINE"></feMergeNode>            <feMergeNode in="SourceGraphic"></feMergeNode>        </feMerge>    </filter>    <filter id="hover" height="200%">        <feMorphology in="SourceAlpha" result="DILATED" operator="dilate" radius="2"></feMorphology>                <feFlood flood-color="#ff0000" flood-opacity="0.5" result="PINK"></feFlood>        <feComposite in="PINK" in2="DILATED" operator="in" result="OUTLINE"></feComposite>        <feMerge>            <feMergeNode in="OUTLINE"></feMergeNode>            <feMergeNode in="SourceGraphic"></feMergeNode>        </feMerge>            <feColorMatrix type="matrix" values="0   0   0   0   0                0   1   0   0   0                0   0   0   0   0                0   0   0   1   0 "></feColorMatrix>    </filter></defs></svg>